PathFileType	3	(X/Y/Z)	D:\Vicon Database\Healthy Subjects\S0040\Jan. 30, 2020\Force Plate Walk 8.trc
DataRate	CameraRate	NumFrames	NumMarkers	Units	OrigDataRate	OrigDataStartFrame	OrigNumFrames
100.0	100.0	4	53	mm	100.0	347	319	
Frame#	Time	right_foot_cluster2			right_foot_cluster3			sternum_cluster1			sternum_cluster2			sternum_cluster3			left_asis			right_asis			left_psis			right_psis			sacrum_cluster1			sacrum_cluster2			sacrum_cluster3			left_lat_femoral_epicondyle			left_anterior_thigh15			left_anterior_thigh25			left_anterior_thigh50			left_lateral_thigh25			left_lateral_thigh50			left_thigh_cluster1			left_thigh_cluster2			left_thigh_cluster3			left_fibular_head			left_tibial_tuberosity			left_anterior_shank30			left_lateral_malleolus			left_shank_cluster1			left_shank_cluster2			left_shank_cluster3			left_heel			left_metatarsal2			left_foot_cluster1			left_foot_cluster2			left_foot_cluster3			right_lat_femoral_epicondyle			right_anterior_thigh15			right_anterior_thigh25			right_anterior_thigh50			right_lateral_thigh25			right_lateral_thigh50			right_thigh_cluster1			right_thigh_cluster2			right_thigh_cluster3			right_fibular_head			right_tibial_tuberosity			right_lateral_distal_shank			right_anterior_shank30			right_lateral_malleolus			right_shank_cluster1			right_shank_cluster2			right_shank_cluster3			right_heel			right_metatarsal2			right_foot_cluster1			
		X1	Y1	Z1	X2	Y2	Z2	X3	Y3	Z3	X4	Y4	Z4	X5	Y5	Z5	X6	Y6	Z6	X7	Y7	Z7	X8	Y8	Z8	X9	Y9	Z9	X10	Y10	Z10	X11	Y11	Z11	X12	Y12	Z12	X13	Y13	Z13	X14	Y14	Z14	X15	Y15	Z15	X16	Y16	Z16	X17	Y17	Z17	X18	Y18	Z18	X19	Y19	Z19	X20	Y20	Z20	X21	Y21	Z21	X22	Y22	Z22	X23	Y23	Z23	X24	Y24	Z24	X25	Y25	Z25	X26	Y26	Z26	X27	Y27	Z27	X28	Y28	Z28	X29	Y29	Z29	X30	Y30	Z30	X31	Y31	Z31	X32	Y32	Z32	X33	Y33	Z33	X34	Y34	Z34	X35	Y35	Z35	X36	Y36	Z36	X37	Y37	Z37	X38	Y38	Z38	X39	Y39	Z39	X40	Y40	Z40	X41	Y41	Z41	X42	Y42	Z42	X43	Y43	Z43	X44	Y44	Z44	X45	Y45	Z45	X46	Y46	Z46	X47	Y47	Z47	X48	Y48	Z48	X49	Y49	Z49	X50	Y50	Z50	X51	Y51	Z51	X52	Y52	Z52	X53	Y53	Z53	
347	3.46	2365.2617	146.86887	-243.394	2367.1497	148.67	-280.72104	2678.8489	1416.1823	-174.19391	2667.1448	1388.0059	-167.40282	2672.271	1390.9584	-205.25552	2695.9307	1036.0768	-46.361755	2706.4731	1048.9742	-297.91119	2863.8123	1062.427	-94.725555	2872.4792	1060.7266	-212.05936	2876.4597	1117.2487	-159.6778	2883.3235	1091.8113	-170.62781	2882.665	1086.9789	-131.40855	2915.9949	544.35883	-28.629435	2794.1497	581.59485	-73.066551	2743.9448	658.15332	-54.325504	2700.0852	794.18738	-34.283718	2862.0522	687.30463	-7.1460271	2807.022	823.50098	17.03787	2826.8628	782.69568	22.992474	2838.0425	755.29926	20.116501	2800.5615	753.30115	27.270184	2948.6365	470.79196	-21.270952	2904.4075	433.95432	-74.710037	3055.8672	230.43018	-86.825638	3160.5386	157.3716	-58.875626	2933.4133	385.99344	-102.98099	2944.3887	360.25281	-93.925491	2955.9353	367.92105	-130.21097	3244.97	158.35574	-95.575912	3050.1768	59.228752	-95.694695	3079.1035	129.02463	-88.077827	3066.4719	102.18736	-78.388382	3060.0549	105.86069	-116.86205	2589.7527	533.31879	-308.84161	2543.2388	646.63867	-258.10529	2559.9675	723.98248	-256.57153	2611.3279	839.35364	-263.50568	2650.3274	678.73792	-338.28333	2708.2542	815.9339	-365.15659	2695.4277	763.36536	-371.0817	2674.2871	743.4848	-367.0419	2709.918	727.16095	-360.52985	2579.0261	467.67838	-310.70325	2520.8259	477.02676	-269.35153	2511.7678	206.94106	-298.80862	2467.6846	234.57851	-257.28696	2472.1328	106.1206	-287.55884	2509.6394	412.11475	-214.60382	2507.0071	383.64642	-207.1003	2485.2791	388.1604	-236.8037	2529.8391	53.784775	-247.26189	2326.4014	126.63476	-253.95375	2392.8342	152.3156	-251.9454
348	3.47	2357.9185	139.48718	-241.36642	2359.1519	141.13226	-278.82657	2664.0403	1416.4025	-175.75502	2652.2046	1388.3031	-168.87845	2657.1135	1391.3492	-206.5509	2678.9126	1035.8076	-47.782791	2688.9624	1048.6102	-299.31253	2846.7976	1061.5973	-96.32341	2855.3716	1060.3103	-213.75861	2859.2246	1116.7032	-161.22899	2866.165	1091.3796	-172.25354	2865.5261	1086.4758	-133.00992	2895.3867	542.72144	-29.157423	2771.2837	580.29468	-72.53006	2723.9973	657.38861	-54.529198	2681.2305	794.0614	-35.742809	2842.8853	685.77728	-8.7410269	2789.0813	822.47986	15.083081	2808.7705	781.74292	20.95492	2819.771	754.64026	18.344694	2782.2756	752.60657	25.633453	2929.3037	470.09323	-21.39432	2885.6904	431.33856	-74.430717	3044.5037	232.97537	-86.070465	3150.7068	162.97166	-57.974529	2916.1521	383.93207	-102.59907	2927.8154	359.18732	-93.431633	2939.1184	366.68375	-129.81638	3234.4924	169.58308	-95.460564	3047.3594	57.886929	-95.579582	3070.3357	129.36517	-87.423576	3060.1858	100.89236	-78.289543	3053.0066	105.00159	-116.11893	2574.1121	532.883	-309.48322	2526.4604	646.10699	-258.03973	2542.8091	723.70819	-256.75131	2593.7153	839.17621	-264.41003	2634.7363	678.33508	-338.27823	2691.3345	815.32092	-365.99475	2678.6467	762.64911	-371.56009	2657.7842	742.64624	-367.18375	2693.5884	727.04669	-361.14908	2564.428	466.83139	-311.60181	2505.9492	475.40775	-270.13647	2502.5286	204.89217	-298.90784	2457.8623	231.60638	-257.38687	2465.8052	103.50122	-287.01596	2496.5525	409.8356	-215.14226	2493.9761	381.50653	-207.65872	2472.009	385.6947	-237.17744	2526.5559	54.818478	-247.55511	2319.6428	117.43098	-251.39705	2385.228	146.00623	-250.60501
349	3.48	2350.8601	132.12581	-239.43745	2351.6238	133.86931	-276.98117	2649.1484	1416.759	-177.08516	2637.1782	1388.9746	-170.2128	2641.936	1391.8622	-207.96643	2661.6335	1035.8085	-49.139858	2671.3237	1048.946	-300.67792	2829.6128	1060.8466	-97.850883	2838.0747	1060.0156	-215.38289	2841.9648	1116.2847	-162.63141	2848.8975	1090.9637	-173.71251	2848.2813	1085.8939	-134.51402	2873.3711	540.90955	-29.617575	2748.8621	578.39502	-72.271584	2703.1245	656.61652	-54.697559	2662.9829	793.89178	-37.13229	2823.0198	684.297	-10.221732	2770.5959	821.4502	12.989634	2789.6714	780.74536	18.799402	2800.7566	753.5528	16.473989	2763.3203	751.86676	23.809084	2908.5693	469.24036	-21.366617	2866.9617	428.69498	-74.51403	3030.3508	235.74985	-85.199875	3139.3779	168.90315	-57.10014	2897.3125	381.90778	-101.68131	2910.2109	357.82077	-92.76326	2920.7595	365.1662	-129.04816	3221.9497	181.76363	-95.142227	3044.1021	57.238617	-95.052361	3060.9263	129.19214	-86.717331	3053.6951	99.925987	-78.281181	3045.3289	103.5387	-115.36922	2559.5542	532.90619	-310.47681	2510.7146	645.63092	-257.51834	2526.552	723.23755	-257.23605	2576.0637	839.43231	-265.55823	2619	678.06989	-337.87296	2674.2661	815.30542	-366.81177	2662.0388	762.64923	-371.97308	2642.1531	742.08014	-367.13464	2677.2515	727.14008	-361.24426	2549.9656	466.25623	-312.85599	2491.533	473.81641	-270.63373	2493.0588	202.93616	-299.13974	2448.5339	228.8251	-256.75473	2459.9646	101.60534	-287.4389	2483.6611	408.23471	-215.45863	2481.6987	379.86121	-207.94875	2459.8528	383.25555	-237.56104	2523.344	56.02351	-247.76637	2313.6482	108.40239	-248.9787	2377.6528	140.17078	-248.82033
350	3.49	2344.8215	125.91001	-238.22961	2345.2275	127.68577	-275.84238	2634.1792	1417.6522	-178.40778	2621.9333	1389.8855	-171.47885	2626.6426	1392.7831	-209.21736	2644.438	1035.9786	-50.716526	2653.8616	1049.6393	-302.168	2812.3154	1060.1552	-99.27076	2820.7046	1059.8801	-216.87267	2824.8335	1115.9473	-163.83026	2831.6953	1090.6454	-175.06499	2831.0334	1085.4015	-135.87372	2850.5432	539.00067	-29.664936	2725.7544	576.57483	-71.757347	2681.3096	656.0307	-54.50758	2644.0969	793.88922	-38.398422	2802.333	682.50055	-11.34417	2751.6528	820.32825	10.831802	2770.3967	779.74286	16.467155	2780.7891	751.98303	14.14454	2743.7097	751.33691	22.200878	2886.8113	468.22552	-20.950285	2843.2561	425.79504	-72.892403	3015.4163	238.31781	-84.018471	3126.4041	174.83208	-56.013687	2877.3611	380.2937	-101.1781	2891.3091	356.22827	-91.544395	2900.6067	363.50348	-128.08011	3207.1067	194.45358	-94.80526	3040.0557	57.144588	-95.049522	3051.0828	128.18095	-86.099442	3045.4683	98.873245	-77.155632	3037.4795	101.63509	-114.86286	2544.9336	532.59747	-311.75586	2495.582	644.66766	-257.5069	2510.9167	722.5589	-258.24411	2558.824	839.55957	-267.12149	2603.1284	678.17554	-338.52356	2657.627	816.12042	-367.97046	2645.8191	763.25983	-372.92685	2625.6174	742.70123	-368.52286	2661.1462	728.00006	-362.34125	2535.6194	465.76968	-313.89758	2477.6042	472.36288	-271.09906	2484.1914	201.28391	-298.8425	2439.5088	226.22501	-255.94852	2454.7375	99.809952	-287.17645	2471.384	406.23975	-215.44377	2470.2417	378.08383	-207.96346	2447.699	381.27066	-237.27823	2520.6938	57.719414	-247.69878	2308.426	100.47411	-247.74663	2371.1433	134.89975	-247.59378
